<svg width="1605" height="1596" viewBox="0 0 1605 1596" fill="none" xmlns="http://www.w3.org/2000/svg">
<rect x="1" y="77" width="1424" height="874" fill="#1C1D28"/>
<path d="M845.026 321.321C846.873 316.889 854.627 315.555 858.62 314.667C863.023 313.689 869.86 311.71 871.337 314.049C872.814 316.388 885.159 382.997 884.174 384.105C883.189 385.213 859.676 388.045 856.721 386.198C853.767 384.351 843.18 325.753 845.026 321.321Z" fill="#E1E1E1"/>
<path d="M718.769 740.976C723.233 741.887 720.802 754.049 719.491 759.537C716.962 770.121 694.707 761.976 698.178 752.472C701.797 742.566 714.543 740.114 718.769 740.976Z" fill="#313447"/>
<path fill-rule="evenodd" clip-rule="evenodd" d="M1053.64 579.123C1051.81 576.138 1051.58 572.987 1054.57 569.797C1062.68 561.148 1086.93 566.593 1115.77 573.068C1126.05 575.376 1136.92 577.816 1147.84 579.794C1404.6 605.766 1605 822.574 1605 1086.19C1605 1367.3 1377.11 1595.19 1096 1595.19C814.887 1595.19 587 1367.3 587 1086.19C587 986.536 587.092 929.543 636.585 851.049C681.202 770.57 748.027 703.676 825.749 656.148C835.888 647.53 855.176 630.816 864.013 621.98C874.175 611.817 884.474 614.182 889.907 622.426C942.281 599.121 997.816 584.198 1053.64 579.123Z" fill="url(#paint0_linear_72_136)"/>
<circle r="36" transform="matrix(-1 0 0 1 1409 533.186)" fill="#383B51"/>
<path fill-rule="evenodd" clip-rule="evenodd" d="M865.115 299.939C861 299.36 857.064 297.67 854.411 294.218C846.766 284.271 861.627 274.774 868.353 277.253C875.079 279.731 885.406 291.986 882.878 295.736C881.87 297.232 878.354 298.875 874.007 299.679L886.941 310.685L876.439 319.995L865.115 299.939Z" fill="#FFB287"/>
<path fill-rule="evenodd" clip-rule="evenodd" d="M859.641 275.782C857.818 276.617 855.604 278.316 854.816 279.193C854.256 277.557 853.274 276.051 851.964 274.898C850.691 273.778 849.179 273.205 847.663 272.543C846.964 272.238 846.235 271.964 845.479 271.927C844.709 271.89 843.95 272.087 843.29 272.445C842.614 272.812 842.037 273.343 841.58 273.959C841.378 274.231 841.256 274.543 841.068 274.822C840.876 275.108 840.617 275.059 840.296 275.062C839.525 275.071 838.719 275.452 838.108 275.874C837.422 276.349 836.862 277.012 836.452 277.739C836.053 278.447 835.786 279.259 835.786 280.096C835.786 280.469 835.829 280.856 835.952 281.215C836.003 281.362 836.052 281.433 835.979 281.567C835.912 281.692 835.797 281.796 835.725 281.922C835.032 283.136 834.863 284.654 835.274 286.047C835.513 286.859 836.281 287.983 837.32 289.084C838.359 290.186 842.001 292.234 843.913 292.463C845.619 292.669 847.437 292.191 848.894 291.395C848.905 293.027 849.387 294.649 850.027 296.167C850.722 297.816 851.624 299.37 852.716 300.8C853.754 302.158 854.941 303.515 856.347 304.498C857.662 305.417 859.109 305.845 860.647 305.567C861.351 305.44 862.029 305.212 862.693 304.964C863.348 304.72 864 304.469 864.605 304.122C865.749 303.464 866.833 302.442 866.896 301.011C866.918 300.496 866.904 299.885 866.8 299.372C866.762 299.188 866.734 299.07 866.543 299.027C866.313 298.975 866.051 299.013 865.82 299.018C864.504 299.047 863.286 298.609 862.273 297.703C861.245 296.784 860.348 295.217 860.948 293.886C861.688 292.243 863.605 291.676 865.222 291.298C864.232 289.246 863.877 286.923 864.706 284.845C865.623 282.546 867.436 280.765 868.503 278.543C868.781 277.964 869.045 277.353 869.036 276.684C869.031 276.405 869.009 276.058 868.878 275.8C868.705 275.461 868.323 275.388 867.996 275.295C866.26 274.802 861.464 274.948 859.641 275.782Z" fill="#191847"/>
<path fill-rule="evenodd" clip-rule="evenodd" d="M896.878 366.515L970.831 407.701L1029.75 444.599L1035.83 441.091L921.528 352.284L896.878 366.515Z" fill="white"/>
<path fill-rule="evenodd" clip-rule="evenodd" d="M1024.62 444.289C1024.92 446.129 1025.29 447.424 1025.73 448.175C1026.25 449.088 1027.18 450.333 1028.49 451.909C1029.55 451.297 1039.07 445.8 1057.05 435.418C1056.38 432.536 1055.19 431.458 1053.47 432.186C1051.76 432.914 1050.33 433.504 1049.18 433.957L1032.49 435.703C1032.17 435.737 1031.94 436.025 1031.97 436.346C1031.97 436.351 1031.97 436.357 1031.97 436.362L1032.31 438.925C1031.23 440.47 1030.23 441.51 1029.3 442.045C1028.55 442.479 1027.34 442.775 1025.66 442.932L1025.66 442.932C1025.02 442.993 1024.55 443.563 1024.61 444.206C1024.61 444.234 1024.61 444.262 1024.62 444.289Z" fill="#FFCA00"/>
<path d="M1056.94 434.82C1056.56 434.59 1037.45 445.523 1027.94 451.018C1027.84 451.525 1028.32 452.006 1028.72 452.375C1029.13 452.745 1057.23 436.702 1057.5 436.085C1057.77 435.468 1057.41 435.107 1056.94 434.82Z" fill="#CBA71E"/>
<path fill-rule="evenodd" clip-rule="evenodd" d="M1017 440.606L1026.67 430.295C1012.67 417.911 996.629 404.653 978.535 390.523C960.442 376.392 942.169 363.224 923.718 351.019L890.62 370.128C912.65 386.323 934.108 400.207 954.993 411.779C975.879 423.351 996.547 432.96 1017 440.606Z" fill="url(#paint1_radial_72_136)"/>
<path fill-rule="evenodd" clip-rule="evenodd" d="M894.405 367.943C903.617 392.101 913.074 424.301 912.931 425.546C912.835 426.376 900.322 440.533 875.39 468.016L879.796 472.617C913.246 446.285 930.115 431.099 930.403 427.061C930.834 421.003 925.673 378.09 919.16 353.65L894.405 367.943Z" fill="url(#paint2_linear_72_136)"/>
<path fill-rule="evenodd" clip-rule="evenodd" d="M883.472 457.174L890.767 464.47C919.441 451.106 935.165 439.722 937.939 430.316C940.712 420.911 935.094 394.986 921.084 352.54L889.524 370.761C902.454 404.677 909.001 422.456 909.164 424.099C909.327 425.742 900.763 436.767 883.472 457.174Z" fill="url(#paint3_radial_72_136)"/>
<path fill-rule="evenodd" clip-rule="evenodd" d="M875.599 464.919C873.841 465.54 872.63 466.13 871.965 466.687C871.158 467.365 870.092 468.488 868.768 470.058C869.554 470.995 876.621 479.417 889.968 495.324C892.69 494.159 893.544 492.797 892.53 491.237C891.516 489.677 890.686 488.371 890.04 487.318L885.422 471.182C885.333 470.871 885.009 470.692 884.699 470.781C884.693 470.782 884.688 470.784 884.683 470.785L882.218 471.567C880.509 470.77 879.31 469.962 878.623 469.144C878.065 468.479 877.563 467.334 877.117 465.711L877.117 465.711C876.945 465.089 876.302 464.723 875.679 464.894C875.652 464.901 875.625 464.91 875.599 464.919Z" fill="#FFCA00"/>
<path fill-rule="evenodd" clip-rule="evenodd" d="M935.671 315.679L945.377 303.006C944.162 295.379 944.795 290.994 947.274 289.85C948.8 288.112 949.262 298.222 952.571 295.87C955.88 293.518 961.851 283.002 963.972 283.669C967.11 284.656 967.774 291.637 966.731 295.715C964.781 303.337 961.953 306.895 953.974 313.438C949.802 316.859 945.83 321.782 942.06 328.207L935.671 315.679Z" fill="url(#paint4_linear_72_136)"/>
<mask id="mask0_72_136" style="mask-type:alpha" maskUnits="userSpaceOnUse" x="935" y="283" width="33" height="46">
<path fill-rule="evenodd" clip-rule="evenodd" d="M935.671 315.679L945.377 303.006C944.162 295.379 944.795 290.994 947.274 289.85C948.8 288.112 949.262 298.222 952.571 295.87C955.88 293.518 961.851 283.002 963.972 283.669C967.11 284.656 967.774 291.637 966.731 295.715C964.781 303.337 961.953 306.895 953.974 313.438C949.802 316.859 945.83 321.782 942.06 328.207L935.671 315.679Z" fill="url(#paint5_linear_72_136)"/>
</mask>
<g mask="url(#mask0_72_136)">
<path d="M944.696 300.805C944.29 301.066 944.647 303.595 944.877 304.827C945.276 305.081 949.913 313.559 953.5 314.501C957.088 315.443 959.588 311.639 959.914 310.878C960.24 310.117 950.348 301.566 948.391 300.479C946.435 299.392 945.203 300.479 944.696 300.805Z" fill="#E1E1E1"/>
</g>
<path d="M914.783 303.821L895.311 330.917L904.756 333.325L919.91 308.28C926.335 301.762 928.94 298.205 927.725 297.606C925.902 296.708 924.566 299.119 923.238 298.712C921.909 298.305 921.697 294.324 921.657 290.537C921.617 286.75 920.04 287.992 919.292 288.972C917.33 293.013 915.827 297.962 914.783 303.821Z" fill="#E1E1E1"/>
<mask id="mask1_72_136" style="mask-type:alpha" maskUnits="userSpaceOnUse" x="895" y="287" width="34" height="47">
<path d="M914.783 303.821L895.311 330.917L904.756 333.325L919.91 308.28C926.335 301.762 928.94 298.205 927.725 297.606C925.902 296.708 924.566 299.119 923.238 298.712C921.909 298.305 921.697 294.324 921.657 290.537C921.617 286.75 920.04 287.992 919.292 288.972C917.33 293.013 915.827 297.962 914.783 303.821Z" fill="#E1E1E1"/>
</mask>
<g mask="url(#mask1_72_136)">
<path d="M923.402 305.839C923.454 305.449 917.639 302.99 914.725 301.81C914.384 301.452 913.117 304.556 913.003 305.401C912.889 306.245 919.811 308.455 921.289 308.748C922.768 309.04 923.337 306.327 923.402 305.839Z" fill="#B9B9B9"/>
</g>
<path fill-rule="evenodd" clip-rule="evenodd" d="M894.508 322.958C900.627 319.338 908.087 313.297 913.637 302.679L921.507 308.365C918.926 317.85 913.274 327.683 905.725 331.764C899.775 334.98 892.694 329.625 894.508 322.958Z" fill="#E1E1E1"/>
<path fill-rule="evenodd" clip-rule="evenodd" d="M909.902 330.475C917.38 328.331 927.231 320.081 939.456 305.723C947.83 311.415 952.844 316.025 954.497 319.553C945.279 334.068 935.741 343.673 926.539 349.257C930.028 354.616 932.393 360.267 932.907 366.38C933.966 378.949 901.46 385.51 893.348 392.596C876.87 377.291 883.585 363.329 876.717 351.414C869.197 338.365 868.079 312.243 869.62 311.354L883.671 303.241C890.198 312.754 900.438 321.479 909.902 330.475Z" fill="url(#paint6_linear_72_136)"/>
<path fill-rule="evenodd" clip-rule="evenodd" d="M1158.06 214.556C1141.46 207.035 1129.29 198.084 1130.89 194.562C1131.94 192.24 1138.72 192.859 1147.97 195.707C1146.37 197.367 1145.09 199.331 1144.23 201.504C1148.95 203.73 1151 204.607 1160 208.646C1169 212.686 1171.69 213.723 1177.15 216.028C1178.09 214.091 1178.69 211.96 1178.88 209.712C1187.13 214.79 1192.06 219.474 1191.01 221.796C1189.41 225.318 1174.66 222.076 1158.06 214.556Z" fill="#FF8A01"/>
<path d="M1142.95 208.179C1142.95 218.121 1151.01 226.179 1160.95 226.179C1170.89 226.179 1178.95 218.121 1178.95 208.179C1178.95 198.238 1170.89 190.179 1160.95 190.179C1151.01 190.179 1142.95 198.238 1142.95 208.179Z" fill="#383B51"/>
<path fill-rule="evenodd" clip-rule="evenodd" d="M1158.06 214.556C1141.46 207.035 1129.29 198.084 1130.89 194.562C1131.94 192.24 1138.72 192.859 1147.97 195.708C1146.37 197.367 1145.09 199.331 1144.23 201.504C1148.95 203.73 1151 204.607 1160 208.646C1169 212.686 1171.69 213.723 1177.15 216.028C1178.09 214.091 1178.69 211.96 1178.88 209.712C1187.13 214.79 1192.06 219.474 1191.01 221.796C1189.41 225.318 1174.66 222.076 1158.06 214.556Z" fill="#383B51"/>
<path d="M869.169 384.175C876.484 478.382 486 506.824 486 245.686C486 -62.8139 390.5 8.18614 265.5 17.6861" stroke="url(#paint7_linear_72_136)" stroke-width="8"/>
<path fill-rule="evenodd" clip-rule="evenodd" d="M486.219 835.336C493.09 824.027 502.735 818.135 506.699 816.603C508.414 820.491 511.055 831.481 507.901 844.332C503.959 860.396 490.011 891.823 488.915 892.276C488.854 892.302 488.806 892.399 488.768 892.56L493.895 924.918L474.945 917.645C469.255 930.117 457.606 949.479 455.094 941.326C453.394 935.811 455.594 922.897 458.335 911.27L440.959 904.601L453.393 894.532C455.556 892.4 458 890.18 460.136 888.24C463.342 885.329 465.854 883.047 465.685 882.637C465.232 881.542 477.631 849.472 486.219 835.336Z" fill="url(#paint8_linear_72_136)"/>
<path d="M738.5 582.686C734.5 585.086 734.5 587.186 734 588.686C733.5 587.686 733 585.586 729 583.186C732 580.186 732.5 579.186 733.5 577.186C734 578.186 734.5 580.286 738.5 582.686Z" fill="#383B51"/>
<path d="M734 588.686L733.553 588.91L734.093 589.989L734.474 588.844L734 588.686ZM738.5 582.686L738.757 583.115L739.472 582.686L738.757 582.257L738.5 582.686ZM733.5 577.186L733.947 576.962L733.5 576.068L733.053 576.962L733.5 577.186ZM729 583.186L728.646 582.832L728.194 583.285L728.743 583.615L729 583.186ZM734.474 588.844C734.759 587.992 734.84 587.228 735.375 586.266C735.886 585.346 736.815 584.28 738.757 583.115L738.243 582.257C736.185 583.492 735.114 584.676 734.5 585.781C733.91 586.844 733.741 587.88 733.526 588.528L734.474 588.844ZM733.053 577.41C733.268 577.84 733.564 578.711 734.282 579.704C735.015 580.717 736.194 581.885 738.243 583.115L738.757 582.257C736.806 581.087 735.735 580.005 735.093 579.118C734.436 578.211 734.232 577.532 733.947 576.962L733.053 577.41ZM734.447 588.462C734.232 588.032 733.936 587.161 733.218 586.168C732.485 585.155 731.306 583.987 729.257 582.757L728.743 583.615C730.694 584.785 731.765 585.867 732.407 586.754C733.064 587.661 733.268 588.34 733.553 588.91L734.447 588.462ZM733.053 576.962C732.552 577.965 732.192 578.681 731.593 579.52C730.992 580.363 730.139 581.34 728.646 582.832L729.354 583.54C730.861 582.032 731.758 581.009 732.407 580.102C733.058 579.191 733.448 578.408 733.947 577.41L733.053 576.962Z" fill="#383B51"/>
<path d="M723.5 231.686C719.5 234.086 719.5 236.186 719 237.686C718.5 236.686 718 234.586 714 232.186C717 229.186 717.5 228.186 718.5 226.186C719 227.186 719.5 229.286 723.5 231.686Z" fill="#383B51"/>
<path d="M719 237.686L718.553 237.91L719.093 238.989L719.474 237.844L719 237.686ZM723.5 231.686L723.757 232.115L724.472 231.686L723.757 231.257L723.5 231.686ZM718.5 226.186L718.947 225.962L718.5 225.068L718.053 225.962L718.5 226.186ZM714 232.186L713.646 231.832L713.194 232.285L713.743 232.615L714 232.186ZM719.474 237.844C719.759 236.992 719.84 236.228 720.375 235.266C720.886 234.346 721.815 233.28 723.757 232.115L723.243 231.257C721.185 232.492 720.114 233.676 719.5 234.781C718.91 235.844 718.741 236.88 718.526 237.528L719.474 237.844ZM718.053 226.41C718.268 226.84 718.564 227.711 719.282 228.704C720.015 229.717 721.194 230.885 723.243 232.115L723.757 231.257C721.806 230.087 720.735 229.005 720.093 228.118C719.436 227.211 719.232 226.532 718.947 225.962L718.053 226.41ZM719.447 237.462C719.232 237.032 718.936 236.161 718.218 235.168C717.485 234.155 716.306 232.987 714.257 231.757L713.743 232.615C715.694 233.785 716.765 234.867 717.407 235.754C718.064 236.661 718.268 237.34 718.553 237.91L719.447 237.462ZM718.053 225.962C717.552 226.965 717.192 227.681 716.593 228.52C715.992 229.363 715.139 230.34 713.646 231.832L714.354 232.54C715.861 231.032 716.758 230.009 717.407 229.102C718.058 228.191 718.448 227.408 718.947 226.41L718.053 225.962Z" fill="#383B51"/>
<path d="M1255.5 335.686C1251.5 338.086 1251.5 340.186 1251 341.686C1250.5 340.686 1250 338.586 1246 336.186C1249 333.186 1249.5 332.186 1250.5 330.186C1251 331.186 1251.5 333.286 1255.5 335.686Z" fill="#383B51"/>
<path d="M1251 341.686L1250.55 341.91L1251.09 342.989L1251.47 341.844L1251 341.686ZM1255.5 335.686L1255.76 336.115L1256.47 335.686L1255.76 335.257L1255.5 335.686ZM1250.5 330.186L1250.95 329.962L1250.5 329.068L1250.05 329.962L1250.5 330.186ZM1246 336.186L1245.65 335.832L1245.19 336.285L1245.74 336.615L1246 336.186ZM1251.47 341.844C1251.76 340.992 1251.84 340.228 1252.37 339.266C1252.89 338.346 1253.82 337.28 1255.76 336.115L1255.24 335.257C1253.18 336.492 1252.11 337.676 1251.5 338.781C1250.91 339.844 1250.74 340.88 1250.53 341.528L1251.47 341.844ZM1250.05 330.41C1250.27 330.84 1250.56 331.711 1251.28 332.704C1252.02 333.717 1253.19 334.885 1255.24 336.115L1255.76 335.257C1253.81 334.087 1252.73 333.005 1252.09 332.118C1251.44 331.211 1251.23 330.532 1250.95 329.962L1250.05 330.41ZM1251.45 341.462C1251.23 341.032 1250.94 340.161 1250.22 339.168C1249.48 338.155 1248.31 336.987 1246.26 335.757L1245.74 336.615C1247.69 337.785 1248.77 338.867 1249.41 339.754C1250.06 340.661 1250.27 341.34 1250.55 341.91L1251.45 341.462ZM1250.05 329.962C1249.55 330.965 1249.19 331.681 1248.59 332.52C1247.99 333.363 1247.14 334.34 1245.65 335.832L1246.35 336.54C1247.86 335.032 1248.76 334.009 1249.41 333.102C1250.06 332.191 1250.45 331.408 1250.95 330.41L1250.05 329.962Z" fill="#383B51"/>
<path d="M927.5 182.686C923.5 185.086 923.5 187.186 923 188.686C922.5 187.686 922 185.586 918 183.186C921 180.186 921.5 179.186 922.5 177.186C923 178.186 923.5 180.286 927.5 182.686Z" fill="#383B51"/>
<path d="M923 188.686L922.553 188.91L923.093 189.989L923.474 188.844L923 188.686ZM927.5 182.686L927.757 183.115L928.472 182.686L927.757 182.257L927.5 182.686ZM922.5 177.186L922.947 176.962L922.5 176.068L922.053 176.962L922.5 177.186ZM918 183.186L917.646 182.832L917.194 183.285L917.743 183.615L918 183.186ZM923.474 188.844C923.759 187.992 923.84 187.228 924.375 186.266C924.886 185.346 925.815 184.28 927.757 183.115L927.243 182.257C925.185 183.492 924.114 184.676 923.5 185.781C922.91 186.844 922.741 187.88 922.526 188.528L923.474 188.844ZM922.053 177.41C922.268 177.84 922.564 178.711 923.282 179.704C924.015 180.717 925.194 181.885 927.243 183.115L927.757 182.257C925.806 181.087 924.735 180.005 924.093 179.118C923.436 178.211 923.232 177.532 922.947 176.962L922.053 177.41ZM923.447 188.462C923.232 188.032 922.936 187.161 922.218 186.168C921.485 185.155 920.306 183.987 918.257 182.757L917.743 183.615C919.694 184.785 920.765 185.867 921.407 186.754C922.064 187.661 922.268 188.34 922.553 188.91L923.447 188.462ZM922.053 176.962C921.552 177.965 921.192 178.681 920.593 179.52C919.992 180.363 919.139 181.34 917.646 182.832L918.354 183.54C919.861 182.032 920.758 181.009 921.407 180.102C922.058 179.191 922.448 178.408 922.947 177.41L922.053 176.962Z" fill="#383B51"/>
<path d="M182.5 270.686C178.5 273.086 178.5 275.186 178 276.686C177.5 275.686 177 273.586 173 271.186C176 268.186 176.5 267.186 177.5 265.186C178 266.186 178.5 268.286 182.5 270.686Z" fill="#383B51"/>
<path d="M178 276.686L177.553 276.91L178.093 277.989L178.474 276.844L178 276.686ZM182.5 270.686L182.757 271.115L183.472 270.686L182.757 270.257L182.5 270.686ZM177.5 265.186L177.947 264.962L177.5 264.068L177.053 264.962L177.5 265.186ZM173 271.186L172.646 270.832L172.194 271.285L172.743 271.615L173 271.186ZM178.474 276.844C178.759 275.992 178.84 275.228 179.375 274.266C179.886 273.346 180.815 272.28 182.757 271.115L182.243 270.257C180.185 271.492 179.114 272.676 178.5 273.781C177.91 274.844 177.741 275.88 177.526 276.528L178.474 276.844ZM177.053 265.41C177.268 265.84 177.564 266.711 178.282 267.704C179.015 268.717 180.194 269.885 182.243 271.115L182.757 270.257C180.806 269.087 179.735 268.005 179.093 267.118C178.436 266.211 178.232 265.532 177.947 264.962L177.053 265.41ZM178.447 276.462C178.232 276.032 177.936 275.161 177.218 274.168C176.485 273.155 175.306 271.987 173.257 270.757L172.743 271.615C174.694 272.785 175.765 273.867 176.407 274.754C177.064 275.661 177.268 276.34 177.553 276.91L178.447 276.462ZM177.053 264.962C176.552 265.965 176.192 266.681 175.593 267.52C174.992 268.363 174.139 269.34 172.646 270.832L173.354 271.54C174.861 270.032 175.758 269.009 176.407 268.102C177.058 267.191 177.448 266.408 177.947 265.41L177.053 264.962Z" fill="#383B51"/>
<path d="M415.5 367.686C411.5 370.086 411.5 372.186 411 373.686C410.5 372.686 410 370.586 406 368.186C409 365.186 409.5 364.186 410.5 362.186C411 363.186 411.5 365.286 415.5 367.686Z" fill="#383B51"/>
<path d="M411 373.686L410.553 373.91L411.093 374.989L411.474 373.844L411 373.686ZM415.5 367.686L415.757 368.115L416.472 367.686L415.757 367.257L415.5 367.686ZM410.5 362.186L410.947 361.962L410.5 361.068L410.053 361.962L410.5 362.186ZM406 368.186L405.646 367.832L405.194 368.285L405.743 368.615L406 368.186ZM411.474 373.844C411.759 372.992 411.84 372.228 412.375 371.266C412.886 370.346 413.815 369.28 415.757 368.115L415.243 367.257C413.185 368.492 412.114 369.676 411.5 370.781C410.91 371.844 410.741 372.88 410.526 373.528L411.474 373.844ZM410.053 362.41C410.268 362.84 410.564 363.711 411.282 364.704C412.015 365.717 413.194 366.885 415.243 368.115L415.757 367.257C413.806 366.087 412.735 365.005 412.093 364.118C411.436 363.211 411.232 362.532 410.947 361.962L410.053 362.41ZM411.447 373.462C411.232 373.032 410.936 372.161 410.218 371.168C409.485 370.155 408.306 368.987 406.257 367.757L405.743 368.615C407.694 369.785 408.765 370.867 409.407 371.754C410.064 372.661 410.268 373.34 410.553 373.91L411.447 373.462ZM410.053 361.962C409.552 362.965 409.192 363.681 408.593 364.52C407.992 365.363 407.139 366.34 405.646 367.832L406.354 368.54C407.861 367.032 408.758 366.009 409.407 365.102C410.058 364.191 410.448 363.408 410.947 362.41L410.053 361.962Z" fill="#383B51"/>
<path d="M373.5 146.686C369.5 149.086 369.5 151.186 369 152.686C368.5 151.686 368 149.586 364 147.186C367 144.186 367.5 143.186 368.5 141.186C369 142.186 369.5 144.286 373.5 146.686Z" fill="#383B51"/>
<path d="M369 152.686L368.553 152.91L369.093 153.989L369.474 152.844L369 152.686ZM373.5 146.686L373.757 147.115L374.472 146.686L373.757 146.257L373.5 146.686ZM368.5 141.186L368.947 140.962L368.5 140.068L368.053 140.962L368.5 141.186ZM364 147.186L363.646 146.832L363.194 147.285L363.743 147.615L364 147.186ZM369.474 152.844C369.759 151.992 369.84 151.228 370.375 150.266C370.886 149.346 371.815 148.28 373.757 147.115L373.243 146.257C371.185 147.492 370.114 148.676 369.5 149.781C368.91 150.844 368.741 151.88 368.526 152.528L369.474 152.844ZM368.053 141.41C368.268 141.84 368.564 142.711 369.282 143.704C370.015 144.717 371.194 145.885 373.243 147.115L373.757 146.257C371.806 145.087 370.735 144.005 370.093 143.118C369.436 142.211 369.232 141.532 368.947 140.962L368.053 141.41ZM369.447 152.462C369.232 152.032 368.936 151.161 368.218 150.168C367.485 149.155 366.306 147.987 364.257 146.757L363.743 147.615C365.694 148.785 366.765 149.867 367.407 150.754C368.064 151.661 368.268 152.34 368.553 152.91L369.447 152.462ZM368.053 140.962C367.552 141.965 367.192 142.681 366.593 143.52C365.992 144.363 365.139 145.34 363.646 146.832L364.354 147.54C365.861 146.032 366.758 145.009 367.407 144.102C368.058 143.191 368.448 142.408 368.947 141.41L368.053 140.962Z" fill="#383B51"/>
<path d="M16.5 335.686C12.5 338.086 12.5 340.186 12 341.686C11.5 340.686 11 338.586 7 336.186C10 333.186 10.5 332.186 11.5 330.186C12 331.186 12.5 333.286 16.5 335.686Z" fill="#383B51"/>
<path d="M12 341.686L11.5528 341.91L12.0926 342.989L12.4743 341.844L12 341.686ZM16.5 335.686L16.7572 336.115L17.4718 335.686L16.7572 335.257L16.5 335.686ZM11.5 330.186L11.9472 329.962L11.5 329.068L11.0528 329.962L11.5 330.186ZM7 336.186L6.64645 335.832L6.19362 336.285L6.74275 336.615L7 336.186ZM12.4743 341.844C12.7585 340.992 12.8404 340.228 13.3746 339.266C13.8857 338.346 14.8152 337.28 16.7572 336.115L16.2428 335.257C14.1848 336.492 13.1143 337.676 12.5004 338.781C11.9096 339.844 11.7415 340.88 11.5257 341.528L12.4743 341.844ZM11.0528 330.41C11.2679 330.84 11.5637 331.711 12.2824 332.704C13.0151 333.717 14.1936 334.885 16.2428 336.115L16.7572 335.257C14.8064 334.087 13.7349 333.005 13.0926 332.118C12.4363 331.211 12.2321 330.532 11.9472 329.962L11.0528 330.41ZM12.4472 341.462C12.2321 341.032 11.9363 340.161 11.2176 339.168C10.4849 338.155 9.30642 336.987 7.25725 335.757L6.74275 336.615C8.69358 337.785 9.76512 338.867 10.4074 339.754C11.0637 340.661 11.2679 341.34 11.5528 341.91L12.4472 341.462ZM11.0528 329.962C10.5517 330.965 10.1924 331.681 9.59313 332.52C8.99157 333.363 8.13879 334.34 6.64645 335.832L7.35355 336.54C8.86121 335.032 9.75843 334.009 10.4069 333.102C11.0576 332.191 11.4483 331.408 11.9472 330.41L11.0528 329.962Z" fill="#383B51"/>
<path d="M10.5 626.686C6.5 629.086 6.5 631.186 6 632.686C5.5 631.686 5 629.586 1 627.186C4 624.186 4.5 623.186 5.5 621.186C6 622.186 6.5 624.286 10.5 626.686Z" fill="#383B51"/>
<path d="M6 632.686L5.55279 632.91L6.09262 633.989L6.47434 632.844L6 632.686ZM10.5 626.686L10.7572 627.115L11.4718 626.686L10.7572 626.257L10.5 626.686ZM5.5 621.186L5.94721 620.962L5.5 620.068L5.05279 620.962L5.5 621.186ZM1 627.186L0.646447 626.832L0.193624 627.285L0.742752 627.615L1 627.186ZM6.47434 632.844C6.75853 631.992 6.84038 631.228 7.37458 630.266C7.88567 629.346 8.8152 628.28 10.7572 627.115L10.2428 626.257C8.1848 627.492 7.11433 628.676 6.50042 629.781C5.90962 630.844 5.74147 631.88 5.52566 632.528L6.47434 632.844ZM5.05279 621.41C5.26793 621.84 5.56374 622.711 6.28244 623.704C7.01512 624.717 8.19358 625.885 10.2428 627.115L10.7572 626.257C8.80642 625.087 7.73488 624.005 7.09256 623.118C6.43626 622.211 6.23207 621.532 5.94721 620.962L5.05279 621.41ZM6.44721 632.462C6.23207 632.032 5.93626 631.161 5.21756 630.168C4.48488 629.155 3.30642 627.987 1.25725 626.757L0.742752 627.615C2.69358 628.785 3.76512 629.867 4.40744 630.754C5.06374 631.661 5.26793 632.34 5.55279 632.91L6.44721 632.462ZM5.05279 620.962C4.55173 621.965 4.19242 622.681 3.59313 623.52C2.99157 624.363 2.13879 625.34 0.646447 626.832L1.35355 627.54C2.86121 626.032 3.75843 625.009 4.40687 624.102C5.05758 623.191 5.44827 622.408 5.94721 621.41L5.05279 620.962Z" fill="#383B51"/>
<path d="M312.5 849.686C308.5 852.086 308.5 854.186 308 855.686C307.5 854.686 307 852.586 303 850.186C306 847.186 306.5 846.186 307.5 844.186C308 845.186 308.5 847.286 312.5 849.686Z" fill="#383B51"/>
<path d="M308 855.686L307.553 855.91L308.093 856.989L308.474 855.844L308 855.686ZM312.5 849.686L312.757 850.115L313.472 849.686L312.757 849.257L312.5 849.686ZM307.5 844.186L307.947 843.962L307.5 843.068L307.053 843.962L307.5 844.186ZM303 850.186L302.646 849.832L302.194 850.285L302.743 850.615L303 850.186ZM308.474 855.844C308.759 854.992 308.84 854.228 309.375 853.266C309.886 852.346 310.815 851.28 312.757 850.115L312.243 849.257C310.185 850.492 309.114 851.676 308.5 852.781C307.91 853.844 307.741 854.88 307.526 855.528L308.474 855.844ZM307.053 844.41C307.268 844.84 307.564 845.711 308.282 846.704C309.015 847.717 310.194 848.885 312.243 850.115L312.757 849.257C310.806 848.087 309.735 847.005 309.093 846.118C308.436 845.211 308.232 844.532 307.947 843.962L307.053 844.41ZM308.447 855.462C308.232 855.032 307.936 854.161 307.218 853.168C306.485 852.155 305.306 850.987 303.257 849.757L302.743 850.615C304.694 851.785 305.765 852.867 306.407 853.754C307.064 854.661 307.268 855.34 307.553 855.91L308.447 855.462ZM307.053 843.962C306.552 844.965 306.192 845.681 305.593 846.52C304.992 847.363 304.139 848.34 302.646 849.832L303.354 850.54C304.861 849.032 305.758 848.009 306.407 847.102C307.058 846.191 307.448 845.408 307.947 844.41L307.053 843.962Z" fill="#383B51"/>
<path d="M112.5 793.686C108.5 796.086 108.5 798.186 108 799.686C107.5 798.686 107 796.586 103 794.186C106 791.186 106.5 790.186 107.5 788.186C108 789.186 108.5 791.286 112.5 793.686Z" fill="#383B51"/>
<path d="M108 799.686L107.553 799.91L108.093 800.989L108.474 799.844L108 799.686ZM112.5 793.686L112.757 794.115L113.472 793.686L112.757 793.257L112.5 793.686ZM107.5 788.186L107.947 787.962L107.5 787.068L107.053 787.962L107.5 788.186ZM103 794.186L102.646 793.832L102.194 794.285L102.743 794.615L103 794.186ZM108.474 799.844C108.759 798.992 108.84 798.228 109.375 797.266C109.886 796.346 110.815 795.28 112.757 794.115L112.243 793.257C110.185 794.492 109.114 795.676 108.5 796.781C107.91 797.844 107.741 798.88 107.526 799.528L108.474 799.844ZM107.053 788.41C107.268 788.84 107.564 789.711 108.282 790.704C109.015 791.717 110.194 792.885 112.243 794.115L112.757 793.257C110.806 792.087 109.735 791.005 109.093 790.118C108.436 789.211 108.232 788.532 107.947 787.962L107.053 788.41ZM108.447 799.462C108.232 799.032 107.936 798.161 107.218 797.168C106.485 796.155 105.306 794.987 103.257 793.757L102.743 794.615C104.694 795.785 105.765 796.867 106.407 797.754C107.064 798.661 107.268 799.34 107.553 799.91L108.447 799.462ZM107.053 787.962C106.552 788.965 106.192 789.681 105.593 790.52C104.992 791.363 104.139 792.34 102.646 793.832L103.354 794.54C104.861 793.032 105.758 792.009 106.407 791.102C107.058 790.191 107.448 789.408 107.947 788.41L107.053 787.962Z" fill="#383B51"/>
<path d="M1301.5 564.686C1297.5 567.086 1297.5 569.186 1297 570.686C1296.5 569.686 1296 567.586 1292 565.186C1295 562.186 1295.5 561.186 1296.5 559.186C1297 560.186 1297.5 562.286 1301.5 564.686Z" fill="#383B51"/>
<path d="M1297 570.686L1296.55 570.91L1297.09 571.989L1297.47 570.844L1297 570.686ZM1301.5 564.686L1301.76 565.115L1302.47 564.686L1301.76 564.257L1301.5 564.686ZM1296.5 559.186L1296.95 558.962L1296.5 558.068L1296.05 558.962L1296.5 559.186ZM1292 565.186L1291.65 564.832L1291.19 565.285L1291.74 565.615L1292 565.186ZM1297.47 570.844C1297.76 569.992 1297.84 569.228 1298.37 568.266C1298.89 567.346 1299.82 566.28 1301.76 565.115L1301.24 564.257C1299.18 565.492 1298.11 566.676 1297.5 567.781C1296.91 568.844 1296.74 569.88 1296.53 570.528L1297.47 570.844ZM1296.05 559.41C1296.27 559.84 1296.56 560.711 1297.28 561.704C1298.02 562.717 1299.19 563.885 1301.24 565.115L1301.76 564.257C1299.81 563.087 1298.73 562.005 1298.09 561.118C1297.44 560.211 1297.23 559.532 1296.95 558.962L1296.05 559.41ZM1297.45 570.462C1297.23 570.032 1296.94 569.161 1296.22 568.168C1295.48 567.155 1294.31 565.987 1292.26 564.757L1291.74 565.615C1293.69 566.785 1294.77 567.867 1295.41 568.754C1296.06 569.661 1296.27 570.34 1296.55 570.91L1297.45 570.462ZM1296.05 558.962C1295.55 559.965 1295.19 560.681 1294.59 561.52C1293.99 562.363 1293.14 563.34 1291.65 564.832L1292.35 565.54C1293.86 564.032 1294.76 563.009 1295.41 562.102C1296.06 561.191 1296.45 560.408 1296.95 559.41L1296.05 558.962Z" fill="#383B51"/>
<path d="M1354.5 254.686C1350.5 257.086 1350.5 259.186 1350 260.686C1349.5 259.686 1349 257.586 1345 255.186C1348 252.186 1348.5 251.186 1349.5 249.186C1350 250.186 1350.5 252.286 1354.5 254.686Z" fill="#383B51"/>
<path d="M1350 260.686L1349.55 260.91L1350.09 261.989L1350.47 260.844L1350 260.686ZM1354.5 254.686L1354.76 255.115L1355.47 254.686L1354.76 254.257L1354.5 254.686ZM1349.5 249.186L1349.95 248.962L1349.5 248.068L1349.05 248.962L1349.5 249.186ZM1345 255.186L1344.65 254.832L1344.19 255.285L1344.74 255.615L1345 255.186ZM1350.47 260.844C1350.76 259.992 1350.84 259.228 1351.37 258.266C1351.89 257.346 1352.82 256.28 1354.76 255.115L1354.24 254.257C1352.18 255.492 1351.11 256.676 1350.5 257.781C1349.91 258.844 1349.74 259.88 1349.53 260.528L1350.47 260.844ZM1349.05 249.41C1349.27 249.84 1349.56 250.711 1350.28 251.704C1351.02 252.717 1352.19 253.885 1354.24 255.115L1354.76 254.257C1352.81 253.087 1351.73 252.005 1351.09 251.118C1350.44 250.211 1350.23 249.532 1349.95 248.962L1349.05 249.41ZM1350.45 260.462C1350.23 260.032 1349.94 259.161 1349.22 258.168C1348.48 257.155 1347.31 255.987 1345.26 254.757L1344.74 255.615C1346.69 256.785 1347.77 257.867 1348.41 258.754C1349.06 259.661 1349.27 260.34 1349.55 260.91L1350.45 260.462ZM1349.05 248.962C1348.55 249.965 1348.19 250.681 1347.59 251.52C1346.99 252.363 1346.14 253.34 1344.65 254.832L1345.35 255.54C1346.86 254.032 1347.76 253.009 1348.41 252.102C1349.06 251.191 1349.45 250.408 1349.95 249.41L1349.05 248.962Z" fill="#383B51"/>
<path d="M1036.5 135.686C1032.5 138.086 1032.5 140.186 1032 141.686C1031.5 140.686 1031 138.586 1027 136.186C1030 133.186 1030.5 132.186 1031.5 130.186C1032 131.186 1032.5 133.286 1036.5 135.686Z" fill="#383B51"/>
<path d="M1032 141.686L1031.55 141.91L1032.09 142.989L1032.47 141.844L1032 141.686ZM1036.5 135.686L1036.76 136.115L1037.47 135.686L1036.76 135.257L1036.5 135.686ZM1031.5 130.186L1031.95 129.962L1031.5 129.068L1031.05 129.962L1031.5 130.186ZM1027 136.186L1026.65 135.832L1026.19 136.285L1026.74 136.615L1027 136.186ZM1032.47 141.844C1032.76 140.992 1032.84 140.228 1033.37 139.266C1033.89 138.346 1034.82 137.28 1036.76 136.115L1036.24 135.257C1034.18 136.492 1033.11 137.676 1032.5 138.781C1031.91 139.844 1031.74 140.88 1031.53 141.528L1032.47 141.844ZM1031.05 130.41C1031.27 130.84 1031.56 131.711 1032.28 132.704C1033.02 133.717 1034.19 134.885 1036.24 136.115L1036.76 135.257C1034.81 134.087 1033.73 133.005 1033.09 132.118C1032.44 131.211 1032.23 130.532 1031.95 129.962L1031.05 130.41ZM1032.45 141.462C1032.23 141.032 1031.94 140.161 1031.22 139.168C1030.48 138.155 1029.31 136.987 1027.26 135.757L1026.74 136.615C1028.69 137.785 1029.77 138.867 1030.41 139.754C1031.06 140.661 1031.27 141.34 1031.55 141.91L1032.45 141.462ZM1031.05 129.962C1030.55 130.965 1030.19 131.681 1029.59 132.52C1028.99 133.363 1028.14 134.34 1026.65 135.832L1027.35 136.54C1028.86 135.032 1029.76 134.009 1030.41 133.102C1031.06 132.191 1031.45 131.408 1031.95 130.41L1031.05 129.962Z" fill="#383B51"/>
<path d="M1049.5 319.686C1045.5 322.086 1045.5 324.186 1045 325.686C1044.5 324.686 1044 322.586 1040 320.186C1043 317.186 1043.5 316.186 1044.5 314.186C1045 315.186 1045.5 317.286 1049.5 319.686Z" fill="#383B51"/>
<path d="M1045 325.686L1044.55 325.91L1045.09 326.989L1045.47 325.844L1045 325.686ZM1049.5 319.686L1049.76 320.115L1050.47 319.686L1049.76 319.257L1049.5 319.686ZM1044.5 314.186L1044.95 313.962L1044.5 313.068L1044.05 313.962L1044.5 314.186ZM1040 320.186L1039.65 319.832L1039.19 320.285L1039.74 320.615L1040 320.186ZM1045.47 325.844C1045.76 324.992 1045.84 324.228 1046.37 323.266C1046.89 322.346 1047.82 321.28 1049.76 320.115L1049.24 319.257C1047.18 320.492 1046.11 321.676 1045.5 322.781C1044.91 323.844 1044.74 324.88 1044.53 325.528L1045.47 325.844ZM1044.05 314.41C1044.27 314.84 1044.56 315.711 1045.28 316.704C1046.02 317.717 1047.19 318.885 1049.24 320.115L1049.76 319.257C1047.81 318.087 1046.73 317.005 1046.09 316.118C1045.44 315.211 1045.23 314.532 1044.95 313.962L1044.05 314.41ZM1045.45 325.462C1045.23 325.032 1044.94 324.161 1044.22 323.168C1043.48 322.155 1042.31 320.987 1040.26 319.757L1039.74 320.615C1041.69 321.785 1042.77 322.867 1043.41 323.754C1044.06 324.661 1044.27 325.34 1044.55 325.91L1045.45 325.462ZM1044.05 313.962C1043.55 314.965 1043.19 315.681 1042.59 316.52C1041.99 317.363 1041.14 318.34 1039.65 319.832L1040.35 320.54C1041.86 319.032 1042.76 318.009 1043.41 317.102C1044.06 316.191 1044.45 315.408 1044.95 314.41L1044.05 313.962Z" fill="#383B51"/>
<path d="M955 322.186C955 320.986 942.667 310.686 936.5 305.686C936.5 304.186 938 298.686 940 298.686C942 298.686 960.5 315.686 961 316.186C961.5 316.686 955 323.686 955 322.186Z" fill="url(#paint9_linear_72_136)"/>
<path d="M921.829 312.465C921.717 311.868 914.332 307.949 910.653 306.064C910.513 305.318 910.781 302.435 911.823 302.24C912.865 302.045 924.088 308.694 924.395 308.894C924.702 309.094 921.969 313.211 921.829 312.465Z" fill="#E1E1E1"/>
<rect x="863.706" y="384.802" width="10.2806" height="4.27451" rx="2" transform="rotate(-5.51925 863.706 384.802)" fill="#E1E1E1"/>
<path d="M850.224 314.938C852.03 314.268 853.647 316.287 852.598 317.903L846.322 327.567C845.974 328.104 845.39 328.441 844.751 328.475L843.496 328.542C842.393 328.602 841.451 327.755 841.392 326.652L841.028 319.853C840.981 318.979 841.508 318.176 842.329 317.871L850.224 314.938Z" fill="#E1E1E1"/>
<path d="M888.828 359.58C894.312 365.063 913.473 355.198 917.802 352.872C912.957 357.793 890.191 369.07 886.987 365.688C883.503 362.011 877.989 336.353 878.57 338.869C879.15 341.385 882.78 353.531 888.828 359.58Z" fill="#E1E1E1"/>
<path d="M916.202 379.203C916.636 378.85 917.034 378.542 917.372 378.292C917.227 378.489 916.815 378.803 916.202 379.203C913.853 381.115 910.428 384.341 909.507 386.89C908.144 390.665 899.44 396.328 899.021 395.908C898.601 395.489 895.56 389.931 896.819 389.407C897.919 388.948 911.933 381.993 916.202 379.203Z" fill="#E1E1E1"/>
<path d="M928.085 374.394C927.871 375.609 932.541 391.063 934.923 399.906C935.321 401.39 942.604 404.283 941.532 403.836C940.46 403.39 928.353 372.876 928.085 374.394Z" fill="#E1E1E1"/>
<path d="M838.231 334.71C839.598 331.429 845.339 330.441 848.295 329.784C851.554 329.06 856.732 328.968 857.825 330.7C858.919 332.432 867.941 380.368 867.212 381.189C866.483 382.009 849.076 384.105 846.889 382.738C844.702 381.371 836.864 337.991 838.231 334.71Z" fill="#E1E1E1"/>
<path d="M844.575 319.315C846.422 314.883 854.176 313.549 858.169 312.662C862.572 311.683 869.409 309.704 870.886 312.043C872.363 314.382 884.708 380.991 883.723 382.099C882.738 383.207 859.225 386.039 856.27 384.192C853.316 382.346 842.729 323.747 844.575 319.315Z" fill="#F5F5F5"/>
<mask id="mask2_72_136" style="mask-type:alpha" maskUnits="userSpaceOnUse" x="838" y="329" width="30" height="55">
<path d="M838.231 334.71C839.598 331.429 845.339 330.441 848.295 329.784C851.554 329.06 856.732 328.968 857.825 330.7C858.919 332.432 867.941 380.368 867.212 381.189C866.483 382.009 849.076 384.105 846.889 382.738C844.702 381.371 836.864 337.991 838.231 334.71Z" fill="white"/>
</mask>
<g mask="url(#mask2_72_136)">
<path d="M844.152 349.356C844.106 349.126 841.017 331.612 840.326 331.105" stroke="#FFCA00" stroke-width="3"/>
</g>
<path d="M860.554 377.419C859.478 377.01 855.113 353.178 853.064 341.314C852.68 329.727 867.532 329.471 869.516 337.921C869.794 339.104 877.71 374.987 877.518 375.883C877.326 376.779 861.898 377.932 860.554 377.419Z" fill="white"/>
<path d="M858.538 374.589C857.271 374.107 852.128 346.032 849.715 332.054C849.262 318.404 866.759 318.102 869.097 328.057C869.424 329.45 878.75 371.724 878.524 372.78C878.298 373.835 860.122 375.193 858.538 374.589Z" fill="url(#paint10_linear_72_136)"/>
<path d="M858.881 376.256C858.02 375.461 858.081 374.545 858.219 374.186C859.709 372.117 877.84 370.792 878.585 371.454C879.33 372.116 878.75 373.275 878.585 374.186C878.419 375.097 859.957 377.249 858.881 376.256Z" fill="#E1E1E1"/>
<path d="M911.099 343.746C915.923 349.465 919.081 350.893 920.54 350.835C916.596 355.005 897.454 363.028 894.492 359.318C891.825 355.977 884.707 338.307 882.769 334.406C882.482 334.224 882.315 334.034 882.286 333.834C882.229 333.434 882.41 333.685 882.769 334.406C886.14 336.553 906.016 337.719 911.099 343.746Z" fill="white"/>
<circle cx="864.117" cy="278" r="34" fill="url(#paint11_linear_72_136)"/>
<mask id="mask3_72_136" style="mask-type:alpha" maskUnits="userSpaceOnUse" x="830" y="243" width="69" height="69">
<circle cx="864.117" cy="278" r="34" fill="white"/>
</mask>
<g mask="url(#mask3_72_136)">
<path d="M892.343 296.162C894.562 294.501 885.095 307.525 880.76 310.899C880.76 311.598 862.346 318.667 859.553 317.794C856.76 316.921 858.855 317.008 858.506 314.478C858.157 311.947 874.564 304.965 876.397 304.005C878.229 303.045 886.192 300.765 892.343 296.162Z" fill="#FEFFFF"/>
</g>
<path d="M840.774 263.727C864.144 243.182 884.714 260.341 883.579 258.487C878.47 250.145 868.837 246.834 862.111 247.592C852.504 248.675 844.01 253.066 840.774 263.727Z" fill="#242635"/>
<path d="M892.833 273.956C892.416 272.113 890.63 268.468 889.78 267.159C892.521 267.297 893.07 269.097 893.457 269.632C893.844 270.167 893.251 275.798 892.833 273.956Z" fill="#242635"/>
<circle cx="887.479" cy="324.703" r="7.33816" fill="#FFCA00"/>
<path d="M891.983 385.716C890.753 383.703 882.141 370.954 881.358 369.835C881.944 378.319 887.697 389.315 891.227 390.274C892.307 390.567 893.213 387.729 891.983 385.716Z" fill="#E1E1E1"/>
<g filter="url(#filter0_f_72_136)">
<path d="M1410.81 1047.1C1263.59 1235.84 1083.4 1233.48 1050.9 1101.7C931.023 615.639 1414.7 646.351 1451.79 752.516C1463.84 787.023 1594.82 811.18 1410.81 1047.1Z" fill="url(#paint12_radial_72_136)"/>
</g>
<mask id="mask4_72_136" style="mask-type:alpha" maskUnits="userSpaceOnUse" x="587" y="577" width="1018" height="1019">
<path d="M1605 1086.19C1605 1367.3 1377.11 1595.19 1096 1595.19C814.887 1595.19 587 1367.3 587 1086.19C587 996.973 598.876 918.951 639.197 846.043C725.928 689.212 904.1 577.186 1096 577.186C1377.11 577.186 1605 805.073 1605 1086.19Z" fill="url(#paint13_linear_72_136)"/>
</mask>
<g mask="url(#mask4_72_136)">
<ellipse cx="797.836" cy="943.269" rx="298.437" ry="288.041" transform="rotate(56.6945 797.836 943.269)" fill="url(#paint14_radial_72_136)"/>
</g>
<path d="M992.57 571.325C1062.15 561.527 1123.5 560.813 1115.78 591.351C1108.05 621.889 1062.15 662.335 992.57 672.133C922.991 681.931 844.326 672.123 852.05 641.585C859.775 611.047 922.991 581.123 992.57 571.325Z" fill="url(#paint15_radial_72_136)"/>
<mask id="mask5_72_136" style="mask-type:alpha" maskUnits="userSpaceOnUse" x="851" y="565" width="266" height="111">
<path d="M992.57 571.325C1062.15 561.527 1123.5 560.813 1115.78 591.351C1108.05 621.889 1062.15 662.335 992.57 672.133C922.991 681.931 844.326 672.123 852.05 641.585C859.775 611.047 922.991 581.123 992.57 571.325Z" fill="url(#paint16_radial_72_136)"/>
</mask>
<g mask="url(#mask5_72_136)">
<g filter="url(#filter1_f_72_136)">
<path d="M1099.01 618.592C1123 546.132 789.208 621.468 924.896 668.585C911.749 681.733 823.395 649.77 812.195 610.328C800.996 570.886 831.186 587.442 878.419 554.33C925.652 521.218 1062.97 526.088 1112.15 527.061C1161.33 528.035 1153.54 564.069 1157.92 581.112C1161.43 594.746 1107.29 604.471 1099.01 618.592Z" fill="url(#paint17_radial_72_136)"/>
</g>
</g>
<ellipse rx="131.174" ry="161.838" transform="matrix(0.960901 0.276894 -0.234256 0.972175 714.245 974.053)" fill="#2C2F41"/>
<ellipse rx="181.362" ry="198.028" transform="matrix(0.863252 0.504773 0.483855 -0.875148 1314.78 957.907)" fill="#2C2F42"/>
<ellipse rx="121.363" ry="149.733" transform="matrix(0.960901 0.276894 -0.234256 0.972175 714.245 974.053)" fill="url(#paint18_radial_72_136)"/>
<ellipse rx="170.29" ry="185.939" transform="matrix(0.862992 0.505218 0.483363 -0.87542 1313.73 953.999)" fill="url(#paint19_radial_72_136)"/>
<path d="M991.957 573.749C1026.7 568.857 1059.19 566.265 1081.98 568.649C1093.39 569.843 1102.17 572.266 1107.61 576.12C1113 579.934 1114.99 585.036 1113.3 591.7C1109.69 605.993 1097.01 622.995 1076.42 637.755C1055.87 652.489 1027.56 664.869 993.183 669.709C958.614 674.577 921.802 674.567 894.654 669.569C881.068 667.068 870.037 663.341 862.907 658.448C855.723 653.519 852.891 647.7 854.526 641.236C856.252 634.415 861.103 627.459 868.794 620.572C876.509 613.664 886.953 606.951 899.485 600.788C924.54 588.468 957.394 578.616 991.957 573.749Z" stroke="#2C2F41" stroke-width="5"/>
<g filter="url(#filter2_f_72_136)">
<path d="M1125.32 785.267C1035.08 867.44 1098.33 1107.07 1104.92 1110.97C1188.54 1316.63 922.2 1196.36 969.341 952.716C1016.48 709.074 1215.55 703.095 1125.32 785.267Z" fill="#2C2F41"/>
</g>
<path d="M1259.84 611.725C1252.1 611.725 1241.6 607.95 1238.29 604.518C1231.91 597.899 1253.19 591.871 1260.64 597.096C1268.09 602.32 1263.87 611.725 1259.84 611.725Z" fill="#313447"/>
<path d="M1054.13 742.285C1066.24 738.744 1078.7 737.958 1084.04 746.236C1091.74 758.163 1080.83 760.997 1072.08 768.29C1063.71 775.275 1059.48 787.305 1049.47 777.627C1037.57 766.128 1047.84 744.125 1054.13 742.285Z" fill="#313447"/>
<path d="M887.752 799.714C890.141 801.866 891.978 804.464 890.897 806.731C888.813 811.101 878.559 807.549 879.461 803.43C880.364 799.31 886.511 798.595 887.752 799.714Z" fill="#313447"/>
<path d="M1235.9 689.071C1238.29 691.223 1240.12 693.821 1239.04 696.087C1236.96 700.458 1226.7 696.906 1227.61 692.787C1228.51 688.667 1234.66 687.952 1235.9 689.071Z" fill="#313447"/>
<path d="M786.769 738.725C782.718 737.43 784.503 733.357 786.769 729.162C791.14 721.071 806.68 720.018 801.62 727.129C796.346 734.542 790.603 739.951 786.769 738.725Z" fill="#313447"/>
<path d="M1020.49 980.517C1015.62 989.938 1004.04 984.889 992.226 978.665C969.439 966.663 987.878 947.599 1012.48 951.365C1037.08 955.129 1025.09 971.599 1020.49 980.517Z" fill="#313447"/>
<path d="M1130.82 583.108C1130.5 585.801 1129.68 588.402 1127.81 589.002C1124.21 590.16 1122.03 581.792 1124.97 580.041C1127.91 578.289 1130.98 581.708 1130.82 583.108Z" fill="#383B51"/>
<path d="M846.051 651.656C848.104 653.426 849.795 655.568 849.245 657.449C848.184 661.078 840.034 658.189 840.233 654.774C840.431 651.359 844.984 650.736 846.051 651.656Z" fill="#383B51"/>
<defs>
<filter id="filter0_f_72_136" x="1011.85" y="667.691" width="516.356" height="547.703" filterUnits="userSpaceOnUse" color-interpolation-filters="sRGB">
<feFlood flood-opacity="0" result="BackgroundImageFix"/>
<feBlend mode="normal" in="SourceGraphic" in2="BackgroundImageFix" result="shape"/>
<feGaussianBlur stdDeviation="10" result="effect1_foregroundBlur_72_136"/>
</filter>
<filter id="filter1_f_72_136" x="799.858" y="516.245" width="368.227" height="165.343" filterUnits="userSpaceOnUse" color-interpolation-filters="sRGB">
<feFlood flood-opacity="0" result="BackgroundImageFix"/>
<feBlend mode="normal" in="SourceGraphic" in2="BackgroundImageFix" result="shape"/>
<feGaussianBlur stdDeviation="5" result="effect1_foregroundBlur_72_136"/>
</filter>
<filter id="filter2_f_72_136" x="943.702" y="717.768" width="224.796" height="518.064" filterUnits="userSpaceOnUse" color-interpolation-filters="sRGB">
<feFlood flood-opacity="0" result="BackgroundImageFix"/>
<feBlend mode="normal" in="SourceGraphic" in2="BackgroundImageFix" result="shape"/>
<feGaussianBlur stdDeviation="10" result="effect1_foregroundBlur_72_136"/>
</filter>
<linearGradient id="paint0_linear_72_136" x1="969.5" y1="587.074" x2="1319.07" y2="1325" gradientUnits="userSpaceOnUse">
<stop stop-color="#2C2F41"/>
<stop offset="0.283302" stop-color="#2C2F41"/>
<stop offset="0.51521" stop-color="#2C2F41"/>
<stop offset="1" stop-color="#2C2F41"/>
</linearGradient>
<radialGradient id="paint1_radial_72_136" cx="0" cy="0" r="1" gradientUnits="userSpaceOnUse" gradientTransform="translate(1003.58 357.697) rotate(129.581) scale(113.176 79.9347)">
<stop stop-color="#C3C3C3"/>
<stop offset="0.52403" stop-color="white"/>
<stop offset="1" stop-color="#C8C8C8"/>
</radialGradient>
<linearGradient id="paint2_linear_72_136" x1="877.985" y1="377.423" x2="919.659" y2="449.602" gradientUnits="userSpaceOnUse">
<stop stop-color="white"/>
<stop offset="1" stop-color="#F9F9F9"/>
</linearGradient>
<radialGradient id="paint3_radial_72_136" cx="0" cy="0" r="1" gradientUnits="userSpaceOnUse" gradientTransform="translate(889.118 421.544) rotate(11.7771) scale(48.001 49.107)">
<stop stop-color="#5A5A5A"/>
<stop offset="0.596197" stop-color="#EEEEEE"/>
<stop offset="1" stop-color="white"/>
</radialGradient>
<linearGradient id="paint4_linear_72_136" x1="946.249" y1="290.224" x2="959.58" y2="320.49" gradientUnits="userSpaceOnUse">
<stop stop-color="white"/>
<stop offset="1" stop-color="#F9F9F9"/>
</linearGradient>
<linearGradient id="paint5_linear_72_136" x1="946.249" y1="290.224" x2="959.58" y2="320.49" gradientUnits="userSpaceOnUse">
<stop stop-color="white"/>
<stop offset="1" stop-color="#F9F9F9"/>
</linearGradient>
<linearGradient id="paint6_linear_72_136" x1="890.175" y1="299.486" x2="932.522" y2="372.833" gradientUnits="userSpaceOnUse">
<stop stop-color="white"/>
<stop offset="1" stop-color="#F9F9F9"/>
</linearGradient>
<linearGradient id="paint7_linear_72_136" x1="424.741" y1="46.7013" x2="869.271" y2="442.487" gradientUnits="userSpaceOnUse">
<stop stop-color="#242635"/>
<stop offset="1" stop-color="#494D69"/>
</linearGradient>
<linearGradient id="paint8_linear_72_136" x1="475.166" y1="816.603" x2="450" y2="965.686" gradientUnits="userSpaceOnUse">
<stop stop-color="#383B51"/>
<stop offset="1" stop-color="#383B51"/>
</linearGradient>
<linearGradient id="paint9_linear_72_136" x1="948.764" y1="298.686" x2="948.764" y2="322.396" gradientUnits="userSpaceOnUse">
<stop stop-color="white"/>
<stop offset="1" stop-color="#F9F9F9"/>
</linearGradient>
<linearGradient id="paint10_linear_72_136" x1="877.725" y1="342.425" x2="851.813" y2="346.639" gradientUnits="userSpaceOnUse">
<stop stop-color="#EFEFEF"/>
<stop offset="0.534453" stop-color="white" stop-opacity="0.465547"/>
<stop offset="1" stop-color="#EFEFEF" stop-opacity="0"/>
</linearGradient>
<linearGradient id="paint11_linear_72_136" x1="879.71" y1="224.803" x2="864.117" y2="312" gradientUnits="userSpaceOnUse">
<stop stop-color="#7177D1" stop-opacity="0.12"/>
<stop offset="1" stop-color="#242635" stop-opacity="0.22"/>
</linearGradient>
<radialGradient id="paint12_radial_72_136" cx="0" cy="0" r="1" gradientUnits="userSpaceOnUse" gradientTransform="translate(1473.03 1052.98) rotate(-138.513) scale(446.825 699.472)">
<stop stop-color="#303361" stop-opacity="0.83"/>
<stop offset="0.983218" stop-color="#191B34" stop-opacity="0"/>
</radialGradient>
<linearGradient id="paint13_linear_72_136" x1="969.5" y1="598.686" x2="1312.5" y2="1331.19" gradientUnits="userSpaceOnUse">
<stop stop-color="#3C417C"/>
<stop offset="1" stop-color="#0C0D1C"/>
</linearGradient>
<radialGradient id="paint14_radial_72_136" cx="0" cy="0" r="1" gradientUnits="userSpaceOnUse" gradientTransform="translate(767.014 957.641) rotate(-84.6361) scale(303.131 313.29)">
<stop offset="0.477659" stop-color="#292C3E"/>
<stop offset="1" stop-color="#2D3044" stop-opacity="0"/>
</radialGradient>
<radialGradient id="paint15_radial_72_136" cx="0" cy="0" r="1" gradientUnits="userSpaceOnUse" gradientTransform="translate(982.215 623.187) rotate(174.18) scale(126.371 47.9897)">
<stop stop-color="#2C2F42"/>
<stop offset="0.52458" stop-color="#2B2E40"/>
<stop offset="0.974002" stop-color="#262837"/>
</radialGradient>
<radialGradient id="paint16_radial_72_136" cx="0" cy="0" r="1" gradientUnits="userSpaceOnUse" gradientTransform="translate(982.215 623.187) rotate(173.891) scale(130.834 49.6844)">
<stop stop-color="#2C2F42"/>
<stop offset="0.791667" stop-color="#313567"/>
<stop offset="1" stop-color="#2E3263"/>
</radialGradient>
<radialGradient id="paint17_radial_72_136" cx="0" cy="0" r="1" gradientUnits="userSpaceOnUse" gradientTransform="translate(977.405 567.082) rotate(72.7185) scale(95.5486 205.205)">
<stop offset="0.140928" stop-color="#252737"/>
<stop offset="1" stop-color="#272A3B"/>
</radialGradient>
<radialGradient id="paint18_radial_72_136" cx="0" cy="0" r="1" gradientUnits="userSpaceOnUse" gradientTransform="translate(128.558 181.983) rotate(-97.2568) scale(182.491 148.312)">
<stop stop-color="#2D3041"/>
<stop offset="0.596662" stop-color="#2B2E41"/>
<stop offset="1" stop-color="#242635"/>
</radialGradient>
<radialGradient id="paint19_radial_72_136" cx="0" cy="0" r="1" gradientUnits="userSpaceOnUse" gradientTransform="translate(302.492 138.575) rotate(142.397) scale(318.966 300.84)">
<stop stop-color="#252737"/>
<stop offset="0.60513" stop-color="#2C2F42"/>
<stop offset="0.841688" stop-color="#262838"/>
<stop offset="1" stop-color="#252737"/>
</radialGradient>
</defs>
</svg>
